# xmcd
#
# Track frame offsets:
# 150
# 15120
# 33150
# 48169
# 71258
# 93947
# 114596
# 133186
# 149715
# 176826
# 191676
# 195786
#
# Disc length: 3019 seconds
#
# Revision: 0
# Processed by: cddbd v1.4PL0 Copyright (c) Steve Scherf et al.
# Submitted via: Audion 3.0.2 (http://www.panic.com/audion/)
#
DISCID=9a0bc90c
DTITLE=simply red - home
DYEAR=1900
DGENRE=
TTITLE0=home
TTITLE1=Fake
TTITLE2=sunrire ok
TTITLE3=You_Make_Me_Feel_Brand_New
TTITLE4=home load blues
TTITLE5=positively
TTITLE6=lost weekend
TTITLE7=Money_in_My_Pocket_(Plan_B_Mix) 
TTITLE8=something for you
TTITLE9=it's you
TTITLE10=home .reprise
TTITLE11=sunrise
EXTD=
EXTT0=
EXTT1=
EXTT2=
EXTT3=
EXTT4=
EXTT5=
EXTT6=
EXTT7=
EXTT8=
EXTT9=
EXTT10=
EXTT11=
PLAYORDER=
